<svg xmlns="http://www.w3.org/2000/svg" width="256" height="256" viewBox="0 0 256 256">
  <!-- 背景透明 -->
  <rect width="256" height="256" fill="transparent"/>
  
  <!-- 简化版聊天气泡图标 - 匹配favicon风格 -->
  <g>
    <!-- 主气泡 -->
    <path d="M200,60 L60,60 C44.5,60 32,72.5 32,88 L32,176 C32,191.5 44.5,204 60,204 L140,204 L150,214 L160,204 L200,204 C215.5,204 228,191.5 228,176 L228,88 C228,72.5 215.5,60 200,60 Z" fill="#FF9F43"/>
    
    <!-- 次级气泡 -->
    <path d="M100,96 L140,96 L150,106 L160,96 L176,96 C184.8,96 192,103.2 192,112 L192,144 C192,152.8 184.8,160 176,160 L160,160 L150,170 L140,160 L100,160 C91.2,160 84,152.8 84,144 L84,112 C84,103.2 91.2,96 100,96 Z" fill="#FFB061"/>
    
    <!-- 聊天气泡小点 -->
    <circle cx="128" cy="120" r="4" fill="white"/>
    <circle cx="138" cy="128" r="4" fill="white"/>
    <circle cx="118" cy="136" r="4" fill="white"/>
  </g>
</svg>